{"asset":{"generator":"Khronos glTF Blender I/O v5.2.39","version":"2.0"},"scene":0,"scenes":[{"name":"Scene","nodes":[0]}],"nodes":[{"mesh":0,"name":"RiceCooker_01"}],"materials":[{"doubleSided":true,"name":"RiceCooker_01","normalTexture":{"index":0},"pbrMetallicRoughness":{"baseColorTexture":{"index":1},"metallicRoughnessTexture":{"index":2}}},{"doubleSided":true,"name":"RiceCooker_01_2","normalTexture":{"index":3},"pbrMetallicRoughness":{"baseColorTexture":{"index":4},"metallicRoughnessTexture":{"index":5}}},{"doubleSided":true,"name":"RiceCooker_01_3","pbrMetallicRoughness":{"baseColorTexture":{"index":6},"metallicRoughnessTexture":{"index":7}}},{"doubleSided":true,"name":"RiceCooker_01_4","pbrMetallicRoughness":{"baseColorFactor":[0.800000011920929,0.800000011920929,0.800000011920929,1],"metallicFactor":0,"roughnessFactor":0.9524317383766174}}],"meshes":[{"name":"RiceCooker_01","primitives":[{"attributes":{"POSITION":0,"NORMAL":1,"TEXCOORD_0":2},"indices":3,"material":0},{"attributes":{"POSITION":4,"NORMAL":5,"TEXCOORD_0":6},"indices":7,"material":1},{"attributes":{"POSITION":8,"NORMAL":9,"TEXCOORD_0":10},"indices":11,"material":2},{"attributes":{"POSITION":12,"NORMAL":13,"TEXCOORD_0":14},"indices":15,"material":3}]}],"textures":[{"sampler":0,"source":0},{"sampler":0,"source":1},{"sampler":0,"source":2},{"sampler":0,"source":3},{"sampler":0,"source":4},{"sampler":0,"source":5},{"sampler":0,"source":6},{"sampler":0,"source":7}],"images":[{"mimeType":"image/jpeg","name":"RiceCooker_01_nor_gl_1k","uri":"textures/RiceCooker_01_nor_gl_1k.jpg"},{"mimeType":"image/jpeg","name":"RiceCooker_01_diff_1k","uri":"textures/RiceCooker_01_diff_1k.jpg"},{"mimeType":"image/jpeg","name":"RiceCooker_01_arm_1k","uri":"textures/RiceCooker_01_arm_1k.jpg"},{"mimeType":"image/jpeg","name":"RiceCooker_01_2_nor_gl_1k","uri":"textures/RiceCooker_01_2_nor_gl_1k.jpg"},{"mimeType":"image/jpeg","name":"RiceCooker_01_2_diff_1k","uri":"textures/RiceCooker_01_2_diff_1k.jpg"},{"mimeType":"image/jpeg","name":"RiceCooker_01_2_arm_1k","uri":"textures/RiceCooker_01_2_arm_1k.jpg"},{"mimeType":"image/jpeg","name":"RiceCooker_01_3_diff_1k","uri":"textures/RiceCooker_01_3_diff_1k.jpg"},{"mimeType":"image/jpeg","name":"RiceCooker_01_3_arm_1k","uri":"textures/RiceCooker_01_3_arm_1k.jpg"}],"accessors":[{"bufferView":0,"componentType":5126,"count":2857,"max":[0.14293713867664337,0.20522938668727875,0.15884211659431458],"min":[-0.14300119876861572,0,-0.13879716396331787],"type":"VEC3"},{"bufferView":1,"componentType":5126,"count":2857,"type":"VEC3"},{"bufferView":2,"componentType":5126,"count":2857,"type":"VEC2"},{"bufferView":3,"componentType":5123,"count":9018,"type":"SCALAR"},{"bufferView":4,"componentType":5126,"count":4517,"max":[0.17608126997947693,0.2996703088283539,0.14714884757995605],"min":[-0.17608126997947693,0.1880338340997696,-0.15884210169315338],"type":"VEC3"},{"bufferView":5,"componentType":5126,"count":4517,"type":"VEC3"},{"bufferView":6,"componentType":5126,"count":4517,"type":"VEC2"},{"bufferView":7,"componentType":5123,"count":15561,"type":"SCALAR"},{"bufferView":8,"componentType":5126,"count":365,"max":[0.14302681386470795,0.18951071798801422,0.1471877098083496],"min":[-0.14303700625896454,0.040176067501306534,-0.13894598186016083],"type":"VEC3"},{"bufferView":9,"componentType":5126,"count":365,"type":"VEC3"},{"bufferView":10,"componentType":5126,"count":365,"type":"VEC2"},{"bufferView":11,"componentType":5123,"count":1080,"type":"SCALAR"},{"bufferView":12,"componentType":5126,"count":509,"max":[-0.12800343334674835,0.04259466007351875,0.036172688007354736],"min":[-0.14716169238090515,0.008169962093234062,-0.02789156883955002],"type":"VEC3"},{"bufferView":13,"componentType":5126,"count":509,"type":"VEC3"},{"bufferView":14,"componentType":5126,"count":509,"type":"VEC2"},{"bufferView":15,"componentType":5123,"count":1341,"type":"SCALAR"}],"bufferViews":[{"buffer":0,"byteLength":34284,"byteOffset":0,"target":34962},{"buffer":0,"byteLength":34284,"byteOffset":34284,"target":34962},{"buffer":0,"byteLength":22856,"byteOffset":68568,"target":34962},{"buffer":0,"byteLength":18036,"byteOffset":91424,"target":34963},{"buffer":0,"byteLength":54204,"byteOffset":109460,"target":34962},{"buffer":0,"byteLength":54204,"byteOffset":163664,"target":34962},{"buffer":0,"byteLength":36136,"byteOffset":217868,"target":34962},{"buffer":0,"byteLength":31122,"byteOffset":254004,"target":34963},{"buffer":0,"byteLength":4380,"byteOffset":285128,"target":34962},{"buffer":0,"byteLength":4380,"byteOffset":289508,"target":34962},{"buffer":0,"byteLength":2920,"byteOffset":293888,"target":34962},{"buffer":0,"byteLength":2160,"byteOffset":296808,"target":34963},{"buffer":0,"byteLength":6108,"byteOffset":298968,"target":34962},{"buffer":0,"byteLength":6108,"byteOffset":305076,"target":34962},{"buffer":0,"byteLength":4072,"byteOffset":311184,"target":34962},{"buffer":0,"byteLength":2682,"byteOffset":315256,"target":34963}],"samplers":[{"magFilter":9729,"minFilter":9987}],"buffers":[{"byteLength":317940,"uri":"RiceCooker_01.bin"}]}