{"asset":{"generator":"Khronos glTF Blender I/O v5.2.39","version":"2.0"},"extensionsUsed":["KHR_materials_clearcoat"],"scene":0,"scenes":[{"name":"Scene","nodes":[0]}],"nodes":[{"mesh":0,"name":"Wok_01_lid","rotation":[-0.70710688829422,0,0,0.7071066498756409],"scale":[1.4285714626312256,1.4285717010498047,1.4285717010498047]}],"materials":[{"doubleSided":true,"extensions":{"KHR_materials_clearcoat":{"clearcoatFactor":1,"clearcoatRoughnessFactor":0}},"name":"Wok_01","pbrMetallicRoughness":{"roughnessFactor":0.10000000149011612}},{"alphaMode":"BLEND","doubleSided":true,"name":"Wok_01_glass","pbrMetallicRoughness":{"baseColorFactor":[0.17172344028949738,0.17172344028949738,0.17172344028949738,0.17244665324687958],"metallicFactor":0,"roughnessFactor":0}}],"meshes":[{"name":"Wok_01_lid","primitives":[{"attributes":{"POSITION":0,"NORMAL":1,"TEXCOORD_0":2},"indices":3,"material":0},{"attributes":{"POSITION":4,"NORMAL":5,"TEXCOORD_0":6},"indices":7,"material":1}]}],"accessors":[{"bufferView":0,"componentType":5126,"count":1262,"max":[0.16244181990623474,0.16244181990623474,0.16029837727546692],"min":[-0.16244181990623474,-0.16244181990623474,0.0875135213136673],"type":"VEC3"},{"bufferView":1,"componentType":5126,"count":1262,"type":"VEC3"},{"bufferView":2,"componentType":5126,"count":1262,"type":"VEC2"},{"bufferView":3,"componentType":5123,"count":3840,"type":"SCALAR"},{"bufferView":4,"componentType":5126,"count":552,"max":[0.1599999964237213,0.1599999964237213,0.13283953070640564],"min":[-0.1599999964237213,-0.1599999964237213,0.09316539019346237],"type":"VEC3"},{"bufferView":5,"componentType":5126,"count":552,"type":"VEC3"},{"bufferView":6,"componentType":5126,"count":552,"type":"VEC2"},{"bufferView":7,"componentType":5123,"count":2700,"type":"SCALAR"}],"bufferViews":[{"buffer":0,"byteLength":15144,"byteOffset":0,"target":34962},{"buffer":0,"byteLength":15144,"byteOffset":15144,"target":34962},{"buffer":0,"byteLength":10096,"byteOffset":30288,"target":34962},{"buffer":0,"byteLength":7680,"byteOffset":40384,"target":34963},{"buffer":0,"byteLength":6624,"byteOffset":48064,"target":34962},{"buffer":0,"byteLength":6624,"byteOffset":54688,"target":34962},{"buffer":0,"byteLength":4416,"byteOffset":61312,"target":34962},{"buffer":0,"byteLength":5400,"byteOffset":65728,"target":34963}],"buffers":[{"byteLength":71128,"uri":"Wok_01_lid.bin"}]}