{"asset":{"generator":"Khronos glTF Blender I/O v5.2.39","version":"2.0"},"extensionsUsed":["KHR_materials_clearcoat"],"scene":0,"scenes":[{"name":"Scene","nodes":[0]}],"nodes":[{"mesh":0,"name":"Wok_01","rotation":[-0.70710688829422,0,0,0.7071066498756409],"scale":[1.4285714626312256,1.4285717010498047,1.4285717010498047]}],"materials":[{"doubleSided":true,"extensions":{"KHR_materials_clearcoat":{"clearcoatFactor":1,"clearcoatRoughnessFactor":0}},"name":"Wok_01","pbrMetallicRoughness":{"roughnessFactor":0.10000000149011612}}],"meshes":[{"name":"Wok_01","primitives":[{"attributes":{"POSITION":0,"NORMAL":1,"TEXCOORD_0":2},"indices":3,"material":0}]}],"accessors":[{"bufferView":0,"componentType":5126,"count":1009,"max":[0.2159189134836197,0.1599999964237213,0.09202185273170471],"min":[-0.2159189134836197,-0.1599999964237213,4.847140644415049e-08],"type":"VEC3"},{"bufferView":1,"componentType":5126,"count":1009,"type":"VEC3"},{"bufferView":2,"componentType":5126,"count":1009,"type":"VEC2"},{"bufferView":3,"componentType":5123,"count":4248,"type":"SCALAR"}],"bufferViews":[{"buffer":0,"byteLength":12108,"byteOffset":0,"target":34962},{"buffer":0,"byteLength":12108,"byteOffset":12108,"target":34962},{"buffer":0,"byteLength":8072,"byteOffset":24216,"target":34962},{"buffer":0,"byteLength":8496,"byteOffset":32288,"target":34963}],"buffers":[{"byteLength":40784,"uri":"Wok_01.bin"}]}